<svg xmlns="http://www.w3.org/2000/svg" viewBox="0 0 24 24" fill="none">
  <!-- Box outline -->
  <rect x="3" y="3" width="18" height="18" rx="3" stroke="currentColor" stroke-width="1.5" fill="none"/>
  <!-- S letter -->
  <path d="M9 8.5C9 7.67 9.67 7 10.5 7H13.5C14.33 7 15 7.67 15 8.5C15 9.33 14.33 10 13.5 10H10.5C9.67 10 9 10.67 9 11.5V12.5C9 13.33 9.67 14 10.5 14H13.5C14.33 14 15 14.67 15 15.5C15 16.33 14.33 17 13.5 17H10.5C9.67 17 9 16.33 9 15.5" stroke="currentColor" stroke-width="1.5" stroke-linecap="round" fill="none"/>
  <!-- Music note accent -->
  <circle cx="19" cy="5" r="2" fill="currentColor"/>
</svg>
